<?xml version="1.0" standalone="no"?><!DOCTYPE svg PUBLIC "-//W3C//DTD SVG 1.1//EN" "http://www.w3.org/Graphics/SVG/1.1/DTD/svg11.dtd"><svg t="1632503606301" class="icon" viewBox="0 0 1024 1024" version="1.1" xmlns="http://www.w3.org/2000/svg" p-id="9566" xmlns:xlink="http://www.w3.org/1999/xlink" width="200" height="200"><defs><style type="text/css"></style></defs><path d="M974.848 527.506286C963.730286 511.122286 940.617143 491.227429 893.220571 491.227429L837.924571 491.227429C838.802286 456.118857 836.461714 433.005714 836.461714 433.005714L69.632 433.005714C69.632 433.005714 53.833143 580.169143 119.369143 695.734857 160.621714 767.707429 185.490286 788.48 220.891429 824.173714 280.283429 883.858286 351.670857 883.858286 351.670857 883.858286L552.96 883.858286C552.96 883.858286 624.347429 883.858286 682.861714 825.929143 696.32 812.178286 708.900571 800.768 721.188571 787.309714 923.062857 776.192 974.262857 635.172571 980.406857 616.448 984.210286 606.208 998.253714 562.614857 974.848 527.506286L974.848 527.506286ZM916.333714 592.164571 915.163429 595.675429C914.870857 596.553143 889.709714 680.521143 778.532571 709.778286 781.165714 705.389714 783.798857 700.708571 786.724571 695.734857 811.593143 651.556571 824.758857 602.989714 831.488 559.689143L893.220571 559.689143C909.604571 559.689143 916.626286 563.492571 918.089143 565.540571 921.307429 570.221714 919.552 583.68 916.333714 592.164571L916.333714 592.164571Z" p-id="9567" fill="#515151"></path><path d="M855.976229 934.209829 51.843657 934.209829C3.452343 986.580114 319.166171 1019.933257 319.166171 1019.933257L588.5952 1019.933257C588.5952 1019.933257 894.888229 987.808914 855.976229 934.209829" p-id="9568" fill="#515151"></path><path d="M524.580571 370.395429C525.458286 373.321143 515.803429 376.832 512.585143 375.661714 415.744 314.806857 439.149714 229.961143 502.345143 167.936 550.619429 120.832 586.605714 97.133714 586.898286 22.528 586.605714 15.798857 601.234286 14.921143 603.574857 17.846857 722.651429 186.660571 455.826286 195.437714 524.580571 370.395429" p-id="9569" fill="#515151"></path><path d="M349.915429 370.395429C351.085714 373.321143 341.430857 376.832 338.212571 375.661714 241.371429 314.806857 264.484571 229.961143 327.972571 167.936 375.954286 120.832 411.940571 97.133714 412.233143 22.528 412.233143 15.798857 426.861714 14.921143 429.202286 17.846857 548.278857 186.660571 281.161143 195.437714 349.915429 370.395429" p-id="9570" fill="#515151"></path></svg>