<?xml version="1.0" standalone="no"?><!DOCTYPE svg PUBLIC "-//W3C//DTD SVG 1.1//EN" "http://www.w3.org/Graphics/SVG/1.1/DTD/svg11.dtd"><svg t="1636976199097" class="icon" viewBox="0 0 1024 1024" version="1.1" xmlns="http://www.w3.org/2000/svg" p-id="3773" xmlns:xlink="http://www.w3.org/1999/xlink" width="200" height="200"><defs><style type="text/css"></style></defs><path d="M493.866667 904.533333c-230.4 0-372.266667-162.133333-372.266667-368 0-243.2 193.066667-406.4 412.8-406.4 210.133333 0 366.933333 129.066667 366.933333 332.8 0 185.6-98.133333 259.2-196.266666 259.2-48 0-87.466667-22.4-104.533334-54.4-33.066667 32-83.2 52.266667-131.2 52.266667-117.333333 0-177.066667-83.2-177.066666-183.466667 0-129.066667 93.866667-233.6 231.466666-233.6 39.466667 0 71.466667 10.666667 96 28.8l4.266667-18.133333H725.333333l-50.133333 234.666667c-9.6 46.933333 1.066667 84.266667 46.933333 84.266666 56.533333 0 89.6-46.933333 89.6-171.733333 0-166.4-131.2-244.266667-278.4-244.266667-165.333333 0-317.866667 114.133333-317.866666 320 0 168.533333 107.733333 278.4 278.4 278.4 64 0 130.133333-13.866667 187.733333-43.733333L716.8 857.6c-66.133333 29.866667-153.6 46.933333-222.933333 46.933333z m-7.466667-284.8c27.733333 0 55.466667-7.466667 77.866667-29.866666l34.133333-157.866667c-19.2-20.266667-46.933333-29.866667-73.6-29.866667-70.4 0-121.6 54.4-121.6 125.866667 0 55.466667 26.666667 91.733333 83.2 91.733333z" fill="#000000" p-id="3774"></path></svg>